<?xml version="1.0" standalone="no"?>
<!DOCTYPE svg PUBLIC "-//W3C//DTD SVG 20010904//EN"
 "http://www.w3.org/TR/2001/REC-SVG-20010904/DTD/svg10.dtd">
<svg version="1.0" xmlns="http://www.w3.org/2000/svg"
 width="327.000000pt" height="327.000000pt" viewBox="0 0 327.000000 327.000000"
 preserveAspectRatio="xMidYMid meet">
<metadata>
Created by potrace 1.11, written by Peter Selinger 2001-2013
</metadata>
<g transform="translate(0.000000,327.000000) scale(0.100000,-0.100000)"
fill="#000000" stroke="none">
<path d="M1622 3209 c-5 -13 -70 -188 -145 -389 -74 -201 -170 -458 -212 -572
l-77 -208 -591 -2 -592 -3 120 -84 120 -84 533 0 c293 0 534 2 536 4 3 3 177
444 308 779 7 20 11 22 18 10 4 -8 74 -186 156 -395 81 -209 151 -384 155
-389 5 -6 229 -9 539 -9 l531 0 77 53 c42 30 97 69 121 87 l44 33 -593 2 -593
3 -25 65 c-13 36 -39 106 -57 155 -78 216 -357 960 -360 964 -3 2 -8 -7 -13
-20z"/>
<path d="M490 1694 c0 -1 53 -39 118 -85 l117 -84 282 -1 c248 -1 285 -3 308
-18 53 -35 60 -109 16 -158 l-29 -33 -189 -3 c-103 -2 -191 -7 -196 -11 -4 -4
-20 -43 -36 -87 -16 -43 -96 -261 -179 -484 -241 -649 -253 -682 -250 -685 2
-2 161 112 354 253 l352 257 -155 3 c-142 2 -154 4 -148 20 4 9 46 125 93 257
47 132 88 244 92 248 5 5 65 -32 134 -83 l126 -91 -19 -28 c-11 -15 -29 -55
-40 -89 -79 -233 64 -487 301 -536 209 -43 414 68 482 262 l15 42 -97 -1 -97
0 -30 -42 c-42 -57 -111 -91 -184 -90 -202 2 -307 246 -168 391 90 94 226 102
322 18 l40 -33 75 56 c131 99 321 233 325 229 2 -2 46 -121 98 -265 l94 -263
-154 -2 -154 -3 352 -257 c194 -142 354 -257 355 -255 3 3 -460 1255 -467
1262 -3 2 -84 5 -180 6 -133 0 -181 4 -206 15 -40 20 -64 75 -52 119 10 36 52
75 82 76 12 1 140 2 285 3 l263 1 114 80 c63 44 114 83 115 86 0 3 -190 5
-422 4 -455 -2 -471 -4 -536 -56 -72 -57 -111 -194 -83 -295 23 -87 106 -166
198 -189 l46 -12 -74 -52 c-49 -34 -81 -50 -94 -47 -152 38 -208 40 -307 10
l-57 -17 -56 42 c-30 23 -62 44 -70 47 -21 9 -19 24 4 24 38 0 112 40 154 84
103 105 102 282 -1 385 -75 74 -77 74 -559 76 -233 0 -423 0 -423 -1z"/>
</g>
</svg>
