<svg xmlns="http://www.w3.org/2000/svg" version="1.1" viewBox="0 0 5500 5500" width="150" height="150">
  <path d="M429 5472c-60-41-69-73-69-239 0-162 15-260 54-357 82-202 283-383 481-434 65-16 1017-196 1041-196 9 0 14 11 14 28 0 16 9 62 20 103 65 251 237 449 471 547 415 172 892-30 1057-448 27-69 52-166 52-202 0-18 5-28 15-28 25 0 970 178 1038 196 153 39 323 166 418 312 90 137 119 255 119 479 0 166-9 198-69 239l-36 24H465z"/>
  <path d="M2645 4674c-126-24-280-139-337-253-53-103-58-140-58-395v-237l98 48c148 74 228 93 402 93s254-19 403-93l97-48v237c0 255-5 292-58 395-37 73-144 175-222 213-103 48-211 62-325 40zM2628 3621c-98-20-181-64-288-153-327-273-472-520-496-845l-6-82 29-17c17-10 60-49 96-87 106-113 166-264 167-418v-63h1237l6 93c6 108 35 203 86 288 39 64 129 161 175 187l28 17-6 82c-21 288-131 501-381 741-182 176-273 232-415 258-92 16-145 16-232-1zm241-410c128-31 259-124 280-200 22-79-25-162-104-184-52-14-102 0-155 44-87 72-193 72-280 0-75-63-161-65-221-6-65 65-57 158 19 228 122 112 296 156 461 118z"/>
  <path d="M1471 2300l-23-29 5-385c5-411 10-458 67-631 117-356 429-674 788-803 162-58 263-76 427-76 170 0 265 14 415 62 418 134 755 494 858 918 33 137 42 260 42 598 0 308-1 320-21 346-51 65-226 7-300-100-44-65-59-138-59-299 0-157-10-187-72-225-32-19-52-20-848-20s-816 1-848 20c-61 38-72 69-72 216 0 200-19 273-92 346-52 52-112 80-184 86-57 4-62 3-83-24zm957-1064c93-57 95-186 3-247-59-40-136-27-190 31-34 36-40 118-12 164 28 43 77 72 126 72 22 0 54-9 73-20zm790 0c95-58 95-192 0-250-66-40-156-16-198 52-75 123 75 273 198 198z"/>
</svg>
