<svg xmlns="http://www.w3.org/2000/svg" version="1.1" viewBox="0 0 5500 5500" width="150" height="150">
  <path d="M429 5472l36 24h4570l36-24c60-41 69-73 69-239 0-224-29-342-119-479-95-146-265-273-418-312-68-18-1013-196-1038-196-10 0-15 10-15 28 0 36-25 133-52 202-165 418-642 620-1057 448-234-98-406-296-471-547-11-41-20-87-20-103 0-17-5-28-14-28-24 0-976 180-1041 196-198 51-399 232-481 434-39 97-54 195-54 357 0 166 9 198 69 239zm3565.998-669.5c67.924-188.874 274.926-152.58 276.002 75.676 1.076 123.662-98.108 166.729-161.72 220.254-58.22 48.604-107.812 117.507-114.282 144.579-6.47-27.072-51.75-93.518-114.281-142.122-64.69-50.45-162.797-95.357-161.721-222.711 1.076-226.41 204.308-271.323 276.002-75.676z" fill="#000"/>
  <path d="M2250 3858.803V4026c0 255 5 292 58 395 57 114 211 229 337 253 114 22 222 8 325-40 78-38 185-140 222-213 53-103 58-140 58-395v-167.197c159.499-73.931 308.949-184.728 438.33-332.391 518.228-591.449 518.228-1550.375 0-2141.824-518.226-591.452-1358.434-591.452-1876.66 0-518.228 591.449-518.228 1550.375 0 2141.824 129.381 147.663 278.831 258.46 438.33 332.391z" fill="#000"/>
</svg>
