<!-- Generated by IcoMoon.io -->
<svg version="1.1" xmlns="http://www.w3.org/2000/svg" width="55" height="64" viewBox="0 0 55 64">
<title>question-circle</title>
<path d="M32 49.143v-6.857c0-0.643-0.5-1.143-1.143-1.143h-6.857c-0.643 0-1.143 0.5-1.143 1.143v6.857c0 0.643 0.5 1.143 1.143 1.143h6.857c0.643 0 1.143-0.5 1.143-1.143zM41.143 25.143c0-6.536-6.857-11.429-13-11.429-5.821 0-10.179 2.5-13.25 7.607-0.321 0.5-0.179 1.143 0.286 1.5l4.714 3.571c0.179 0.143 0.429 0.214 0.679 0.214 0.321 0 0.679-0.143 0.893-0.429 1.679-2.143 2.393-2.786 3.071-3.286 0.607-0.429 1.786-0.857 3.071-0.857 2.286 0 4.393 1.464 4.393 3.036 0 1.857-0.964 2.786-3.143 3.786-2.536 1.143-6 4.107-6 7.571v1.286c0 0.643 0.5 1.143 1.143 1.143h6.857c0.643 0 1.143-0.5 1.143-1.143v0c0-0.821 1.036-2.571 2.714-3.536 2.714-1.536 6.429-3.607 6.429-9.036zM54.857 32c0 15.143-12.286 27.429-27.429 27.429s-27.429-12.286-27.429-27.429 12.286-27.429 27.429-27.429 27.429 12.286 27.429 27.429z"></path>
</svg>
