<!-- Generated by IcoMoon.io -->
<svg version="1.1" xmlns="http://www.w3.org/2000/svg" width="14" height="22" viewBox="0 0 14 22">
<title>unlock-alt</title>
<path d="M12.964 9.429c0.651 0 1.179 0.528 1.179 1.179v7.071c0 0.651-0.528 1.179-1.179 1.179h-11.786c-0.651 0-1.179-0.528-1.179-1.179v-7.071c0-0.651 0.528-1.179 1.179-1.179h0.393v-3.929c0-3.032 2.468-5.5 5.5-5.5s5.5 2.468 5.5 5.5c0 0.43-0.356 0.786-0.786 0.786h-0.786c-0.43 0-0.786-0.356-0.786-0.786 0-1.731-1.412-3.143-3.143-3.143s-3.143 1.412-3.143 3.143v3.929h9.036z"></path>
</svg>
